<svg xmlns="http://www.w3.org/2000/svg" viewBox="0 0 1075 318" width="1075" height="318" role="img" aria-label="Two recipes drawn layer by layer: the baseline uses one format everywhere, the MLP-focused recipe compresses deep MLP layers harder and keeps attention precise." font-family="system-ui,-apple-system,Segoe UI,Helvetica,Arial,sans-serif"><defs><radialGradient id="vg" cx="0.2" cy="0.4" r="0.9"><stop offset="0" stop-color="#101c25"/><stop offset="1" stop-color="#0a0c0f"/></radialGradient><marker id="ar" markerWidth="10" markerHeight="10" refX="6" refY="5" orient="auto"><path d="M0 0 L8 5 L0 10 z" fill="#00E5FF"/></marker></defs><rect width="1075" height="318" rx="16" fill="#0a0c0f"/><rect width="1075" height="318" rx="16" fill="url(#vg)"/><rect x="0.75" y="0.75" width="1073.5" height="316.5" rx="15.5" fill="none" stroke="#252b33" stroke-width="1.5"/><text x="26" y="36" font-size="17" font-weight="700" fill="#e9ecf0">Two recipes, drawn layer by layer</text><text x="26" y="56" font-size="12" fill="#8a96a6">Each column is one of the 84 layers. Colour is how that part is compressed: dimmer = smaller, brighter = more precise.</text><text x="26" y="88" font-size="14" font-weight="700" fill="#00E5FF">V0  baseline</text><text x="136" y="88" font-size="11.5" fill="#8a96a6">every unit Q4_K, output head Q6_K</text><text x="84" y="111" font-size="10" fill="#8a96a6" text-anchor="end">GDN</text><rect x="92.0" y="100" width="9.4" height="14" rx="2.5" fill="#0a93ad"><title>layer 0 GDN: Q4_K</title></rect><rect x="103.4" y="100" width="9.4" height="14" rx="2.5" fill="#0a93ad"><title>layer 1 GDN: Q4_K</title></rect><rect x="114.8" y="100" width="9.4" height="14" rx="2.5" fill="#0a93ad"><title>layer 2 GDN: Q4_K</title></rect><rect x="137.6" y="100" width="9.4" height="14" rx="2.5" fill="#0a93ad"><title>layer 4 GDN: Q4_K</title></rect><rect x="149.0" y="100" width="9.4" height="14" rx="2.5" fill="#0a93ad"><title>layer 5 GDN: Q4_K</title></rect><rect x="160.4" y="100" width="9.4" height="14" rx="2.5" fill="#0a93ad"><title>layer 6 GDN: Q4_K</title></rect><rect x="183.2" y="100" width="9.4" height="14" rx="2.5" fill="#0a93ad"><title>layer 8 GDN: Q4_K</title></rect><rect x="194.6" y="100" width="9.4" height="14" rx="2.5" fill="#0a93ad"><title>layer 9 GDN: Q4_K</title></rect><rect x="206.0" y="100" width="9.4" height="14" rx="2.5" fill="#0a93ad"><title>layer 10 GDN: Q4_K</title></rect><rect x="228.8" y="100" width="9.4" height="14" rx="2.5" fill="#0a93ad"><title>layer 12 GDN: Q4_K</title></rect><rect x="240.2" y="100" width="9.4" height="14" rx="2.5" fill="#0a93ad"><title>layer 13 GDN: Q4_K</title></rect><rect x="251.6" y="100" width="9.4" height="14" rx="2.5" fill="#0a93ad"><title>layer 14 GDN: Q4_K</title></rect><rect x="274.4" y="100" width="9.4" height="14" rx="2.5" fill="#0a93ad"><title>layer 16 GDN: Q4_K</title></rect><rect x="285.8" y="100" width="9.4" height="14" rx="2.5" fill="#0a93ad"><title>layer 17 GDN: Q4_K</title></rect><rect x="297.2" y="100" width="9.4" height="14" rx="2.5" fill="#0a93ad"><title>layer 18 GDN: Q4_K</title></rect><rect x="320.0" y="100" width="9.4" height="14" rx="2.5" fill="#0a93ad"><title>layer 20 GDN: Q4_K</title></rect><rect x="331.4" y="100" width="9.4" height="14" rx="2.5" fill="#0a93ad"><title>layer 21 GDN: Q4_K</title></rect><rect x="342.8" y="100" width="9.4" height="14" rx="2.5" fill="#0a93ad"><title>layer 22 GDN: Q4_K</title></rect><rect x="365.6" y="100" width="9.4" height="14" rx="2.5" fill="#0a93ad"><title>layer 24 GDN: Q4_K</title></rect><rect x="377.0" y="100" width="9.4" height="14" rx="2.5" fill="#0a93ad"><title>layer 25 GDN: Q4_K</title></rect><rect x="388.4" y="100" width="9.4" height="14" rx="2.5" fill="#0a93ad"><title>layer 26 GDN: Q4_K</title></rect><rect x="411.2" y="100" width="9.4" height="14" rx="2.5" fill="#0a93ad"><title>layer 28 GDN: Q4_K</title></rect><rect x="422.6" y="100" width="9.4" height="14" rx="2.5" fill="#0a93ad"><title>layer 29 GDN: Q4_K</title></rect><rect x="434.0" y="100" width="9.4" height="14" rx="2.5" fill="#0a93ad"><title>layer 30 GDN: Q4_K</title></rect><rect x="456.8" y="100" width="9.4" height="14" rx="2.5" fill="#0a93ad"><title>layer 32 GDN: Q4_K</title></rect><rect x="468.2" y="100" width="9.4" height="14" rx="2.5" fill="#0a93ad"><title>layer 33 GDN: Q4_K</title></rect><rect x="479.6" y="100" width="9.4" height="14" rx="2.5" fill="#0a93ad"><title>layer 34 GDN: Q4_K</title></rect><rect x="502.4" y="100" width="9.4" height="14" rx="2.5" fill="#0a93ad"><title>layer 36 GDN: Q4_K</title></rect><rect x="513.8" y="100" width="9.4" height="14" rx="2.5" fill="#0a93ad"><title>layer 37 GDN: Q4_K</title></rect><rect x="525.2" y="100" width="9.4" height="14" rx="2.5" fill="#0a93ad"><title>layer 38 GDN: Q4_K</title></rect><rect x="548.0" y="100" width="9.4" height="14" rx="2.5" fill="#0a93ad"><title>layer 40 GDN: Q4_K</title></rect><rect x="559.4" y="100" width="9.4" height="14" rx="2.5" fill="#0a93ad"><title>layer 41 GDN: Q4_K</title></rect><rect x="570.8" y="100" width="9.4" height="14" rx="2.5" fill="#0a93ad"><title>layer 42 GDN: Q4_K</title></rect><rect x="593.6" y="100" width="9.4" height="14" rx="2.5" fill="#0a93ad"><title>layer 44 GDN: Q4_K</title></rect><rect x="605.0" y="100" width="9.4" height="14" rx="2.5" fill="#0a93ad"><title>layer 45 GDN: Q4_K</title></rect><rect x="616.4" y="100" width="9.4" height="14" rx="2.5" fill="#0a93ad"><title>layer 46 GDN: Q4_K</title></rect><rect x="639.2" y="100" width="9.4" height="14" rx="2.5" fill="#0a93ad"><title>layer 48 GDN: Q4_K</title></rect><rect x="650.6" y="100" width="9.4" height="14" rx="2.5" fill="#0a93ad"><title>layer 49 GDN: Q4_K</title></rect><rect x="662.0" y="100" width="9.4" height="14" rx="2.5" fill="#0a93ad"><title>layer 50 GDN: Q4_K</title></rect><rect x="684.8" y="100" width="9.4" height="14" rx="2.5" fill="#0a93ad"><title>layer 52 GDN: Q4_K</title></rect><rect x="696.2" y="100" width="9.4" height="14" rx="2.5" fill="#0a93ad"><title>layer 53 GDN: Q4_K</title></rect><rect x="707.6" y="100" width="9.4" height="14" rx="2.5" fill="#0a93ad"><title>layer 54 GDN: Q4_K</title></rect><rect x="730.4" y="100" width="9.4" height="14" rx="2.5" fill="#0a93ad"><title>layer 56 GDN: Q4_K</title></rect><rect x="741.8" y="100" width="9.4" height="14" rx="2.5" fill="#0a93ad"><title>layer 57 GDN: Q4_K</title></rect><rect x="753.2" y="100" width="9.4" height="14" rx="2.5" fill="#0a93ad"><title>layer 58 GDN: Q4_K</title></rect><rect x="776.0" y="100" width="9.4" height="14" rx="2.5" fill="#0a93ad"><title>layer 60 GDN: Q4_K</title></rect><rect x="787.4" y="100" width="9.4" height="14" rx="2.5" fill="#0a93ad"><title>layer 61 GDN: Q4_K</title></rect><rect x="798.8" y="100" width="9.4" height="14" rx="2.5" fill="#0a93ad"><title>layer 62 GDN: Q4_K</title></rect><rect x="821.6" y="100" width="9.4" height="14" rx="2.5" fill="#0a93ad"><title>layer 64 GDN: Q4_K</title></rect><rect x="833.0" y="100" width="9.4" height="14" rx="2.5" fill="#0a93ad"><title>layer 65 GDN: Q4_K</title></rect><rect x="844.4" y="100" width="9.4" height="14" rx="2.5" fill="#0a93ad"><title>layer 66 GDN: Q4_K</title></rect><rect x="867.2" y="100" width="9.4" height="14" rx="2.5" fill="#0a93ad"><title>layer 68 GDN: Q4_K</title></rect><rect x="878.6" y="100" width="9.4" height="14" rx="2.5" fill="#0a93ad"><title>layer 69 GDN: Q4_K</title></rect><rect x="890.0" y="100" width="9.4" height="14" rx="2.5" fill="#0a93ad"><title>layer 70 GDN: Q4_K</title></rect><rect x="912.8" y="100" width="9.4" height="14" rx="2.5" fill="#0a93ad"><title>layer 72 GDN: Q4_K</title></rect><rect x="924.2" y="100" width="9.4" height="14" rx="2.5" fill="#0a93ad"><title>layer 73 GDN: Q4_K</title></rect><rect x="935.6" y="100" width="9.4" height="14" rx="2.5" fill="#0a93ad"><title>layer 74 GDN: Q4_K</title></rect><rect x="958.4" y="100" width="9.4" height="14" rx="2.5" fill="#0a93ad"><title>layer 76 GDN: Q4_K</title></rect><rect x="969.8" y="100" width="9.4" height="14" rx="2.5" fill="#0a93ad"><title>layer 77 GDN: Q4_K</title></rect><rect x="981.2" y="100" width="9.4" height="14" rx="2.5" fill="#0a93ad"><title>layer 78 GDN: Q4_K</title></rect><rect x="1004.0" y="100" width="9.4" height="14" rx="2.5" fill="#0a93ad"><title>layer 80 GDN: Q4_K</title></rect><rect x="1015.4" y="100" width="9.4" height="14" rx="2.5" fill="#0a93ad"><title>layer 81 GDN: Q4_K</title></rect><rect x="1026.8" y="100" width="9.4" height="14" rx="2.5" fill="#0a93ad"><title>layer 82 GDN: Q4_K</title></rect><text x="84" y="128" font-size="10" fill="#8a96a6" text-anchor="end">Attention</text><rect x="126.2" y="117" width="9.4" height="14" rx="2.5" fill="#0a93ad"><title>layer 3 Attention: Q4_K</title></rect><rect x="171.8" y="117" width="9.4" height="14" rx="2.5" fill="#0a93ad"><title>layer 7 Attention: Q4_K</title></rect><rect x="217.4" y="117" width="9.4" height="14" rx="2.5" fill="#0a93ad"><title>layer 11 Attention: Q4_K</title></rect><rect x="263.0" y="117" width="9.4" height="14" rx="2.5" fill="#0a93ad"><title>layer 15 Attention: Q4_K</title></rect><rect x="308.6" y="117" width="9.4" height="14" rx="2.5" fill="#0a93ad"><title>layer 19 Attention: Q4_K</title></rect><rect x="354.2" y="117" width="9.4" height="14" rx="2.5" fill="#0a93ad"><title>layer 23 Attention: Q4_K</title></rect><rect x="399.8" y="117" width="9.4" height="14" rx="2.5" fill="#0a93ad"><title>layer 27 Attention: Q4_K</title></rect><rect x="445.4" y="117" width="9.4" height="14" rx="2.5" fill="#0a93ad"><title>layer 31 Attention: Q4_K</title></rect><rect x="491.0" y="117" width="9.4" height="14" rx="2.5" fill="#0a93ad"><title>layer 35 Attention: Q4_K</title></rect><rect x="536.6" y="117" width="9.4" height="14" rx="2.5" fill="#0a93ad"><title>layer 39 Attention: Q4_K</title></rect><rect x="582.2" y="117" width="9.4" height="14" rx="2.5" fill="#0a93ad"><title>layer 43 Attention: Q4_K</title></rect><rect x="627.8" y="117" width="9.4" height="14" rx="2.5" fill="#0a93ad"><title>layer 47 Attention: Q4_K</title></rect><rect x="673.4" y="117" width="9.4" height="14" rx="2.5" fill="#0a93ad"><title>layer 51 Attention: Q4_K</title></rect><rect x="719.0" y="117" width="9.4" height="14" rx="2.5" fill="#0a93ad"><title>layer 55 Attention: Q4_K</title></rect><rect x="764.6" y="117" width="9.4" height="14" rx="2.5" fill="#0a93ad"><title>layer 59 Attention: Q4_K</title></rect><rect x="810.2" y="117" width="9.4" height="14" rx="2.5" fill="#0a93ad"><title>layer 63 Attention: Q4_K</title></rect><rect x="855.8" y="117" width="9.4" height="14" rx="2.5" fill="#0a93ad"><title>layer 67 Attention: Q4_K</title></rect><rect x="901.4" y="117" width="9.4" height="14" rx="2.5" fill="#0a93ad"><title>layer 71 Attention: Q4_K</title></rect><rect x="947.0" y="117" width="9.4" height="14" rx="2.5" fill="#0a93ad"><title>layer 75 Attention: Q4_K</title></rect><rect x="992.6" y="117" width="9.4" height="14" rx="2.5" fill="#0a93ad"><title>layer 79 Attention: Q4_K</title></rect><rect x="1038.2" y="117" width="9.4" height="14" rx="2.5" fill="#0a93ad"><title>layer 83 Attention: Q4_K</title></rect><text x="84" y="145" font-size="10" fill="#8a96a6" text-anchor="end">MLP</text><rect x="92.0" y="134" width="9.4" height="14" rx="2.5" fill="#0a93ad"><title>layer 0 MLP: Q4_K</title></rect><rect x="103.4" y="134" width="9.4" height="14" rx="2.5" fill="#0a93ad"><title>layer 1 MLP: Q4_K</title></rect><rect x="114.8" y="134" width="9.4" height="14" rx="2.5" fill="#0a93ad"><title>layer 2 MLP: Q4_K</title></rect><rect x="126.2" y="134" width="9.4" height="14" rx="2.5" fill="#0a93ad"><title>layer 3 MLP: Q4_K</title></rect><rect x="137.6" y="134" width="9.4" height="14" rx="2.5" fill="#0a93ad"><title>layer 4 MLP: Q4_K</title></rect><rect x="149.0" y="134" width="9.4" height="14" rx="2.5" fill="#0a93ad"><title>layer 5 MLP: Q4_K</title></rect><rect x="160.4" y="134" width="9.4" height="14" rx="2.5" fill="#0a93ad"><title>layer 6 MLP: Q4_K</title></rect><rect x="171.8" y="134" width="9.4" height="14" rx="2.5" fill="#0a93ad"><title>layer 7 MLP: Q4_K</title></rect><rect x="183.2" y="134" width="9.4" height="14" rx="2.5" fill="#0a93ad"><title>layer 8 MLP: Q4_K</title></rect><rect x="194.6" y="134" width="9.4" height="14" rx="2.5" fill="#0a93ad"><title>layer 9 MLP: Q4_K</title></rect><rect x="206.0" y="134" width="9.4" height="14" rx="2.5" fill="#0a93ad"><title>layer 10 MLP: Q4_K</title></rect><rect x="217.4" y="134" width="9.4" height="14" rx="2.5" fill="#0a93ad"><title>layer 11 MLP: Q4_K</title></rect><rect x="228.8" y="134" width="9.4" height="14" rx="2.5" fill="#0a93ad"><title>layer 12 MLP: Q4_K</title></rect><rect x="240.2" y="134" width="9.4" height="14" rx="2.5" fill="#0a93ad"><title>layer 13 MLP: Q4_K</title></rect><rect x="251.6" y="134" width="9.4" height="14" rx="2.5" fill="#0a93ad"><title>layer 14 MLP: Q4_K</title></rect><rect x="263.0" y="134" width="9.4" height="14" rx="2.5" fill="#0a93ad"><title>layer 15 MLP: Q4_K</title></rect><rect x="274.4" y="134" width="9.4" height="14" rx="2.5" fill="#0a93ad"><title>layer 16 MLP: Q4_K</title></rect><rect x="285.8" y="134" width="9.4" height="14" rx="2.5" fill="#0a93ad"><title>layer 17 MLP: Q4_K</title></rect><rect x="297.2" y="134" width="9.4" height="14" rx="2.5" fill="#0a93ad"><title>layer 18 MLP: Q4_K</title></rect><rect x="308.6" y="134" width="9.4" height="14" rx="2.5" fill="#0a93ad"><title>layer 19 MLP: Q4_K</title></rect><rect x="320.0" y="134" width="9.4" height="14" rx="2.5" fill="#0a93ad"><title>layer 20 MLP: Q4_K</title></rect><rect x="331.4" y="134" width="9.4" height="14" rx="2.5" fill="#0a93ad"><title>layer 21 MLP: Q4_K</title></rect><rect x="342.8" y="134" width="9.4" height="14" rx="2.5" fill="#0a93ad"><title>layer 22 MLP: Q4_K</title></rect><rect x="354.2" y="134" width="9.4" height="14" rx="2.5" fill="#0a93ad"><title>layer 23 MLP: Q4_K</title></rect><rect x="365.6" y="134" width="9.4" height="14" rx="2.5" fill="#0a93ad"><title>layer 24 MLP: Q4_K</title></rect><rect x="377.0" y="134" width="9.4" height="14" rx="2.5" fill="#0a93ad"><title>layer 25 MLP: Q4_K</title></rect><rect x="388.4" y="134" width="9.4" height="14" rx="2.5" fill="#0a93ad"><title>layer 26 MLP: Q4_K</title></rect><rect x="399.8" y="134" width="9.4" height="14" rx="2.5" fill="#0a93ad"><title>layer 27 MLP: Q4_K</title></rect><rect x="411.2" y="134" width="9.4" height="14" rx="2.5" fill="#0a93ad"><title>layer 28 MLP: Q4_K</title></rect><rect x="422.6" y="134" width="9.4" height="14" rx="2.5" fill="#0a93ad"><title>layer 29 MLP: Q4_K</title></rect><rect x="434.0" y="134" width="9.4" height="14" rx="2.5" fill="#0a93ad"><title>layer 30 MLP: Q4_K</title></rect><rect x="445.4" y="134" width="9.4" height="14" rx="2.5" fill="#0a93ad"><title>layer 31 MLP: Q4_K</title></rect><rect x="456.8" y="134" width="9.4" height="14" rx="2.5" fill="#0a93ad"><title>layer 32 MLP: Q4_K</title></rect><rect x="468.2" y="134" width="9.4" height="14" rx="2.5" fill="#0a93ad"><title>layer 33 MLP: Q4_K</title></rect><rect x="479.6" y="134" width="9.4" height="14" rx="2.5" fill="#0a93ad"><title>layer 34 MLP: Q4_K</title></rect><rect x="491.0" y="134" width="9.4" height="14" rx="2.5" fill="#0a93ad"><title>layer 35 MLP: Q4_K</title></rect><rect x="502.4" y="134" width="9.4" height="14" rx="2.5" fill="#0a93ad"><title>layer 36 MLP: Q4_K</title></rect><rect x="513.8" y="134" width="9.4" height="14" rx="2.5" fill="#0a93ad"><title>layer 37 MLP: Q4_K</title></rect><rect x="525.2" y="134" width="9.4" height="14" rx="2.5" fill="#0a93ad"><title>layer 38 MLP: Q4_K</title></rect><rect x="536.6" y="134" width="9.4" height="14" rx="2.5" fill="#0a93ad"><title>layer 39 MLP: Q4_K</title></rect><rect x="548.0" y="134" width="9.4" height="14" rx="2.5" fill="#0a93ad"><title>layer 40 MLP: Q4_K</title></rect><rect x="559.4" y="134" width="9.4" height="14" rx="2.5" fill="#0a93ad"><title>layer 41 MLP: Q4_K</title></rect><rect x="570.8" y="134" width="9.4" height="14" rx="2.5" fill="#0a93ad"><title>layer 42 MLP: Q4_K</title></rect><rect x="582.2" y="134" width="9.4" height="14" rx="2.5" fill="#0a93ad"><title>layer 43 MLP: Q4_K</title></rect><rect x="593.6" y="134" width="9.4" height="14" rx="2.5" fill="#0a93ad"><title>layer 44 MLP: Q4_K</title></rect><rect x="605.0" y="134" width="9.4" height="14" rx="2.5" fill="#0a93ad"><title>layer 45 MLP: Q4_K</title></rect><rect x="616.4" y="134" width="9.4" height="14" rx="2.5" fill="#0a93ad"><title>layer 46 MLP: Q4_K</title></rect><rect x="627.8" y="134" width="9.4" height="14" rx="2.5" fill="#0a93ad"><title>layer 47 MLP: Q4_K</title></rect><rect x="639.2" y="134" width="9.4" height="14" rx="2.5" fill="#0a93ad"><title>layer 48 MLP: Q4_K</title></rect><rect x="650.6" y="134" width="9.4" height="14" rx="2.5" fill="#0a93ad"><title>layer 49 MLP: Q4_K</title></rect><rect x="662.0" y="134" width="9.4" height="14" rx="2.5" fill="#0a93ad"><title>layer 50 MLP: Q4_K</title></rect><rect x="673.4" y="134" width="9.4" height="14" rx="2.5" fill="#0a93ad"><title>layer 51 MLP: Q4_K</title></rect><rect x="684.8" y="134" width="9.4" height="14" rx="2.5" fill="#0a93ad"><title>layer 52 MLP: Q4_K</title></rect><rect x="696.2" y="134" width="9.4" height="14" rx="2.5" fill="#0a93ad"><title>layer 53 MLP: Q4_K</title></rect><rect x="707.6" y="134" width="9.4" height="14" rx="2.5" fill="#0a93ad"><title>layer 54 MLP: Q4_K</title></rect><rect x="719.0" y="134" width="9.4" height="14" rx="2.5" fill="#0a93ad"><title>layer 55 MLP: Q4_K</title></rect><rect x="730.4" y="134" width="9.4" height="14" rx="2.5" fill="#0a93ad"><title>layer 56 MLP: Q4_K</title></rect><rect x="741.8" y="134" width="9.4" height="14" rx="2.5" fill="#0a93ad"><title>layer 57 MLP: Q4_K</title></rect><rect x="753.2" y="134" width="9.4" height="14" rx="2.5" fill="#0a93ad"><title>layer 58 MLP: Q4_K</title></rect><rect x="764.6" y="134" width="9.4" height="14" rx="2.5" fill="#0a93ad"><title>layer 59 MLP: Q4_K</title></rect><rect x="776.0" y="134" width="9.4" height="14" rx="2.5" fill="#0a93ad"><title>layer 60 MLP: Q4_K</title></rect><rect x="787.4" y="134" width="9.4" height="14" rx="2.5" fill="#0a93ad"><title>layer 61 MLP: Q4_K</title></rect><rect x="798.8" y="134" width="9.4" height="14" rx="2.5" fill="#0a93ad"><title>layer 62 MLP: Q4_K</title></rect><rect x="810.2" y="134" width="9.4" height="14" rx="2.5" fill="#0a93ad"><title>layer 63 MLP: Q4_K</title></rect><rect x="821.6" y="134" width="9.4" height="14" rx="2.5" fill="#0a93ad"><title>layer 64 MLP: Q4_K</title></rect><rect x="833.0" y="134" width="9.4" height="14" rx="2.5" fill="#0a93ad"><title>layer 65 MLP: Q4_K</title></rect><rect x="844.4" y="134" width="9.4" height="14" rx="2.5" fill="#0a93ad"><title>layer 66 MLP: Q4_K</title></rect><rect x="855.8" y="134" width="9.4" height="14" rx="2.5" fill="#0a93ad"><title>layer 67 MLP: Q4_K</title></rect><rect x="867.2" y="134" width="9.4" height="14" rx="2.5" fill="#0a93ad"><title>layer 68 MLP: Q4_K</title></rect><rect x="878.6" y="134" width="9.4" height="14" rx="2.5" fill="#0a93ad"><title>layer 69 MLP: Q4_K</title></rect><rect x="890.0" y="134" width="9.4" height="14" rx="2.5" fill="#0a93ad"><title>layer 70 MLP: Q4_K</title></rect><rect x="901.4" y="134" width="9.4" height="14" rx="2.5" fill="#0a93ad"><title>layer 71 MLP: Q4_K</title></rect><rect x="912.8" y="134" width="9.4" height="14" rx="2.5" fill="#0a93ad"><title>layer 72 MLP: Q4_K</title></rect><rect x="924.2" y="134" width="9.4" height="14" rx="2.5" fill="#0a93ad"><title>layer 73 MLP: Q4_K</title></rect><rect x="935.6" y="134" width="9.4" height="14" rx="2.5" fill="#0a93ad"><title>layer 74 MLP: Q4_K</title></rect><rect x="947.0" y="134" width="9.4" height="14" rx="2.5" fill="#0a93ad"><title>layer 75 MLP: Q4_K</title></rect><rect x="958.4" y="134" width="9.4" height="14" rx="2.5" fill="#0a93ad"><title>layer 76 MLP: Q4_K</title></rect><rect x="969.8" y="134" width="9.4" height="14" rx="2.5" fill="#0a93ad"><title>layer 77 MLP: Q4_K</title></rect><rect x="981.2" y="134" width="9.4" height="14" rx="2.5" fill="#0a93ad"><title>layer 78 MLP: Q4_K</title></rect><rect x="992.6" y="134" width="9.4" height="14" rx="2.5" fill="#0a93ad"><title>layer 79 MLP: Q4_K</title></rect><rect x="1004.0" y="134" width="9.4" height="14" rx="2.5" fill="#0a93ad"><title>layer 80 MLP: Q4_K</title></rect><rect x="1015.4" y="134" width="9.4" height="14" rx="2.5" fill="#0a93ad"><title>layer 81 MLP: Q4_K</title></rect><rect x="1026.8" y="134" width="9.4" height="14" rx="2.5" fill="#0a93ad"><title>layer 82 MLP: Q4_K</title></rect><rect x="1038.2" y="134" width="9.4" height="14" rx="2.5" fill="#0a93ad"><title>layer 83 MLP: Q4_K</title></rect><text x="26" y="185" font-size="14" font-weight="700" fill="#00E5FF">V1  MLP-focused</text><text x="164" y="185" font-size="11.5" fill="#8a96a6">deep MLP layers Q3_K, attention Q8_0, everything else Q5_K</text><text x="84" y="208" font-size="10" fill="#8a96a6" text-anchor="end">GDN</text><rect x="92.0" y="197" width="9.4" height="14" rx="2.5" fill="#00bcd8"><title>layer 0 GDN: Q5_K</title></rect><rect x="103.4" y="197" width="9.4" height="14" rx="2.5" fill="#00bcd8"><title>layer 1 GDN: Q5_K</title></rect><rect x="114.8" y="197" width="9.4" height="14" rx="2.5" fill="#00bcd8"><title>layer 2 GDN: Q5_K</title></rect><rect x="137.6" y="197" width="9.4" height="14" rx="2.5" fill="#00bcd8"><title>layer 4 GDN: Q5_K</title></rect><rect x="149.0" y="197" width="9.4" height="14" rx="2.5" fill="#00bcd8"><title>layer 5 GDN: Q5_K</title></rect><rect x="160.4" y="197" width="9.4" height="14" rx="2.5" fill="#00bcd8"><title>layer 6 GDN: Q5_K</title></rect><rect x="183.2" y="197" width="9.4" height="14" rx="2.5" fill="#00bcd8"><title>layer 8 GDN: Q5_K</title></rect><rect x="194.6" y="197" width="9.4" height="14" rx="2.5" fill="#00bcd8"><title>layer 9 GDN: Q5_K</title></rect><rect x="206.0" y="197" width="9.4" height="14" rx="2.5" fill="#00bcd8"><title>layer 10 GDN: Q5_K</title></rect><rect x="228.8" y="197" width="9.4" height="14" rx="2.5" fill="#00bcd8"><title>layer 12 GDN: Q5_K</title></rect><rect x="240.2" y="197" width="9.4" height="14" rx="2.5" fill="#00bcd8"><title>layer 13 GDN: Q5_K</title></rect><rect x="251.6" y="197" width="9.4" height="14" rx="2.5" fill="#00bcd8"><title>layer 14 GDN: Q5_K</title></rect><rect x="274.4" y="197" width="9.4" height="14" rx="2.5" fill="#00bcd8"><title>layer 16 GDN: Q5_K</title></rect><rect x="285.8" y="197" width="9.4" height="14" rx="2.5" fill="#00bcd8"><title>layer 17 GDN: Q5_K</title></rect><rect x="297.2" y="197" width="9.4" height="14" rx="2.5" fill="#00bcd8"><title>layer 18 GDN: Q5_K</title></rect><rect x="320.0" y="197" width="9.4" height="14" rx="2.5" fill="#00bcd8"><title>layer 20 GDN: Q5_K</title></rect><rect x="331.4" y="197" width="9.4" height="14" rx="2.5" fill="#00bcd8"><title>layer 21 GDN: Q5_K</title></rect><rect x="342.8" y="197" width="9.4" height="14" rx="2.5" fill="#00bcd8"><title>layer 22 GDN: Q5_K</title></rect><rect x="365.6" y="197" width="9.4" height="14" rx="2.5" fill="#00bcd8"><title>layer 24 GDN: Q5_K</title></rect><rect x="377.0" y="197" width="9.4" height="14" rx="2.5" fill="#00bcd8"><title>layer 25 GDN: Q5_K</title></rect><rect x="388.4" y="197" width="9.4" height="14" rx="2.5" fill="#00bcd8"><title>layer 26 GDN: Q5_K</title></rect><rect x="411.2" y="197" width="9.4" height="14" rx="2.5" fill="#00bcd8"><title>layer 28 GDN: Q5_K</title></rect><rect x="422.6" y="197" width="9.4" height="14" rx="2.5" fill="#00bcd8"><title>layer 29 GDN: Q5_K</title></rect><rect x="434.0" y="197" width="9.4" height="14" rx="2.5" fill="#00bcd8"><title>layer 30 GDN: Q5_K</title></rect><rect x="456.8" y="197" width="9.4" height="14" rx="2.5" fill="#00bcd8"><title>layer 32 GDN: Q5_K</title></rect><rect x="468.2" y="197" width="9.4" height="14" rx="2.5" fill="#00bcd8"><title>layer 33 GDN: Q5_K</title></rect><rect x="479.6" y="197" width="9.4" height="14" rx="2.5" fill="#00bcd8"><title>layer 34 GDN: Q5_K</title></rect><rect x="502.4" y="197" width="9.4" height="14" rx="2.5" fill="#00bcd8"><title>layer 36 GDN: Q5_K</title></rect><rect x="513.8" y="197" width="9.4" height="14" rx="2.5" fill="#00bcd8"><title>layer 37 GDN: Q5_K</title></rect><rect x="525.2" y="197" width="9.4" height="14" rx="2.5" fill="#00bcd8"><title>layer 38 GDN: Q5_K</title></rect><rect x="548.0" y="197" width="9.4" height="14" rx="2.5" fill="#00bcd8"><title>layer 40 GDN: Q5_K</title></rect><rect x="559.4" y="197" width="9.4" height="14" rx="2.5" fill="#00bcd8"><title>layer 41 GDN: Q5_K</title></rect><rect x="570.8" y="197" width="9.4" height="14" rx="2.5" fill="#00bcd8"><title>layer 42 GDN: Q5_K</title></rect><rect x="593.6" y="197" width="9.4" height="14" rx="2.5" fill="#00bcd8"><title>layer 44 GDN: Q5_K</title></rect><rect x="605.0" y="197" width="9.4" height="14" rx="2.5" fill="#00bcd8"><title>layer 45 GDN: Q5_K</title></rect><rect x="616.4" y="197" width="9.4" height="14" rx="2.5" fill="#00bcd8"><title>layer 46 GDN: Q5_K</title></rect><rect x="639.2" y="197" width="9.4" height="14" rx="2.5" fill="#00bcd8"><title>layer 48 GDN: Q5_K</title></rect><rect x="650.6" y="197" width="9.4" height="14" rx="2.5" fill="#00bcd8"><title>layer 49 GDN: Q5_K</title></rect><rect x="662.0" y="197" width="9.4" height="14" rx="2.5" fill="#00bcd8"><title>layer 50 GDN: Q5_K</title></rect><rect x="684.8" y="197" width="9.4" height="14" rx="2.5" fill="#00bcd8"><title>layer 52 GDN: Q5_K</title></rect><rect x="696.2" y="197" width="9.4" height="14" rx="2.5" fill="#00bcd8"><title>layer 53 GDN: Q5_K</title></rect><rect x="707.6" y="197" width="9.4" height="14" rx="2.5" fill="#00bcd8"><title>layer 54 GDN: Q5_K</title></rect><rect x="730.4" y="197" width="9.4" height="14" rx="2.5" fill="#00bcd8"><title>layer 56 GDN: Q5_K</title></rect><rect x="741.8" y="197" width="9.4" height="14" rx="2.5" fill="#00bcd8"><title>layer 57 GDN: Q5_K</title></rect><rect x="753.2" y="197" width="9.4" height="14" rx="2.5" fill="#00bcd8"><title>layer 58 GDN: Q5_K</title></rect><rect x="776.0" y="197" width="9.4" height="14" rx="2.5" fill="#00bcd8"><title>layer 60 GDN: Q5_K</title></rect><rect x="787.4" y="197" width="9.4" height="14" rx="2.5" fill="#00bcd8"><title>layer 61 GDN: Q5_K</title></rect><rect x="798.8" y="197" width="9.4" height="14" rx="2.5" fill="#00bcd8"><title>layer 62 GDN: Q5_K</title></rect><rect x="821.6" y="197" width="9.4" height="14" rx="2.5" fill="#00bcd8"><title>layer 64 GDN: Q5_K</title></rect><rect x="833.0" y="197" width="9.4" height="14" rx="2.5" fill="#00bcd8"><title>layer 65 GDN: Q5_K</title></rect><rect x="844.4" y="197" width="9.4" height="14" rx="2.5" fill="#00bcd8"><title>layer 66 GDN: Q5_K</title></rect><rect x="867.2" y="197" width="9.4" height="14" rx="2.5" fill="#00bcd8"><title>layer 68 GDN: Q5_K</title></rect><rect x="878.6" y="197" width="9.4" height="14" rx="2.5" fill="#00bcd8"><title>layer 69 GDN: Q5_K</title></rect><rect x="890.0" y="197" width="9.4" height="14" rx="2.5" fill="#00bcd8"><title>layer 70 GDN: Q5_K</title></rect><rect x="912.8" y="197" width="9.4" height="14" rx="2.5" fill="#00bcd8"><title>layer 72 GDN: Q5_K</title></rect><rect x="924.2" y="197" width="9.4" height="14" rx="2.5" fill="#00bcd8"><title>layer 73 GDN: Q5_K</title></rect><rect x="935.6" y="197" width="9.4" height="14" rx="2.5" fill="#00bcd8"><title>layer 74 GDN: Q5_K</title></rect><rect x="958.4" y="197" width="9.4" height="14" rx="2.5" fill="#00bcd8"><title>layer 76 GDN: Q5_K</title></rect><rect x="969.8" y="197" width="9.4" height="14" rx="2.5" fill="#00bcd8"><title>layer 77 GDN: Q5_K</title></rect><rect x="981.2" y="197" width="9.4" height="14" rx="2.5" fill="#00bcd8"><title>layer 78 GDN: Q5_K</title></rect><rect x="1004.0" y="197" width="9.4" height="14" rx="2.5" fill="#00bcd8"><title>layer 80 GDN: Q5_K</title></rect><rect x="1015.4" y="197" width="9.4" height="14" rx="2.5" fill="#00bcd8"><title>layer 81 GDN: Q5_K</title></rect><rect x="1026.8" y="197" width="9.4" height="14" rx="2.5" fill="#00bcd8"><title>layer 82 GDN: Q5_K</title></rect><text x="84" y="225" font-size="10" fill="#8a96a6" text-anchor="end">Attention</text><rect x="126.2" y="214" width="9.4" height="14" rx="2.5" fill="#c9faff"><title>layer 3 Attention: Q8_0</title></rect><rect x="171.8" y="214" width="9.4" height="14" rx="2.5" fill="#c9faff"><title>layer 7 Attention: Q8_0</title></rect><rect x="217.4" y="214" width="9.4" height="14" rx="2.5" fill="#c9faff"><title>layer 11 Attention: Q8_0</title></rect><rect x="263.0" y="214" width="9.4" height="14" rx="2.5" fill="#c9faff"><title>layer 15 Attention: Q8_0</title></rect><rect x="308.6" y="214" width="9.4" height="14" rx="2.5" fill="#c9faff"><title>layer 19 Attention: Q8_0</title></rect><rect x="354.2" y="214" width="9.4" height="14" rx="2.5" fill="#c9faff"><title>layer 23 Attention: Q8_0</title></rect><rect x="399.8" y="214" width="9.4" height="14" rx="2.5" fill="#c9faff"><title>layer 27 Attention: Q8_0</title></rect><rect x="445.4" y="214" width="9.4" height="14" rx="2.5" fill="#c9faff"><title>layer 31 Attention: Q8_0</title></rect><rect x="491.0" y="214" width="9.4" height="14" rx="2.5" fill="#c9faff"><title>layer 35 Attention: Q8_0</title></rect><rect x="536.6" y="214" width="9.4" height="14" rx="2.5" fill="#c9faff"><title>layer 39 Attention: Q8_0</title></rect><rect x="582.2" y="214" width="9.4" height="14" rx="2.5" fill="#c9faff"><title>layer 43 Attention: Q8_0</title></rect><rect x="627.8" y="214" width="9.4" height="14" rx="2.5" fill="#c9faff"><title>layer 47 Attention: Q8_0</title></rect><rect x="673.4" y="214" width="9.4" height="14" rx="2.5" fill="#c9faff"><title>layer 51 Attention: Q8_0</title></rect><rect x="719.0" y="214" width="9.4" height="14" rx="2.5" fill="#c9faff"><title>layer 55 Attention: Q8_0</title></rect><rect x="764.6" y="214" width="9.4" height="14" rx="2.5" fill="#c9faff"><title>layer 59 Attention: Q8_0</title></rect><rect x="810.2" y="214" width="9.4" height="14" rx="2.5" fill="#c9faff"><title>layer 63 Attention: Q8_0</title></rect><rect x="855.8" y="214" width="9.4" height="14" rx="2.5" fill="#c9faff"><title>layer 67 Attention: Q8_0</title></rect><rect x="901.4" y="214" width="9.4" height="14" rx="2.5" fill="#c9faff"><title>layer 71 Attention: Q8_0</title></rect><rect x="947.0" y="214" width="9.4" height="14" rx="2.5" fill="#c9faff"><title>layer 75 Attention: Q8_0</title></rect><rect x="992.6" y="214" width="9.4" height="14" rx="2.5" fill="#c9faff"><title>layer 79 Attention: Q8_0</title></rect><rect x="1038.2" y="214" width="9.4" height="14" rx="2.5" fill="#c9faff"><title>layer 83 Attention: Q8_0</title></rect><text x="84" y="242" font-size="10" fill="#8a96a6" text-anchor="end">MLP</text><rect x="92.0" y="231" width="9.4" height="14" rx="2.5" fill="#0a93ad"><title>layer 0 MLP: Q4_K</title></rect><rect x="103.4" y="231" width="9.4" height="14" rx="2.5" fill="#0a93ad"><title>layer 1 MLP: Q4_K</title></rect><rect x="114.8" y="231" width="9.4" height="14" rx="2.5" fill="#0a93ad"><title>layer 2 MLP: Q4_K</title></rect><rect x="126.2" y="231" width="9.4" height="14" rx="2.5" fill="#0a93ad"><title>layer 3 MLP: Q4_K</title></rect><rect x="137.6" y="231" width="9.4" height="14" rx="2.5" fill="#0a93ad"><title>layer 4 MLP: Q4_K</title></rect><rect x="149.0" y="231" width="9.4" height="14" rx="2.5" fill="#0a93ad"><title>layer 5 MLP: Q4_K</title></rect><rect x="160.4" y="231" width="9.4" height="14" rx="2.5" fill="#0a93ad"><title>layer 6 MLP: Q4_K</title></rect><rect x="171.8" y="231" width="9.4" height="14" rx="2.5" fill="#0a93ad"><title>layer 7 MLP: Q4_K</title></rect><rect x="183.2" y="231" width="9.4" height="14" rx="2.5" fill="#0a93ad"><title>layer 8 MLP: Q4_K</title></rect><rect x="194.6" y="231" width="9.4" height="14" rx="2.5" fill="#0a93ad"><title>layer 9 MLP: Q4_K</title></rect><rect x="206.0" y="231" width="9.4" height="14" rx="2.5" fill="#11677a"><title>layer 10 MLP: Q3_K</title></rect><rect x="217.4" y="231" width="9.4" height="14" rx="2.5" fill="#11677a"><title>layer 11 MLP: Q3_K</title></rect><rect x="228.8" y="231" width="9.4" height="14" rx="2.5" fill="#11677a"><title>layer 12 MLP: Q3_K</title></rect><rect x="240.2" y="231" width="9.4" height="14" rx="2.5" fill="#11677a"><title>layer 13 MLP: Q3_K</title></rect><rect x="251.6" y="231" width="9.4" height="14" rx="2.5" fill="#11677a"><title>layer 14 MLP: Q3_K</title></rect><rect x="263.0" y="231" width="9.4" height="14" rx="2.5" fill="#11677a"><title>layer 15 MLP: Q3_K</title></rect><rect x="274.4" y="231" width="9.4" height="14" rx="2.5" fill="#11677a"><title>layer 16 MLP: Q3_K</title></rect><rect x="285.8" y="231" width="9.4" height="14" rx="2.5" fill="#11677a"><title>layer 17 MLP: Q3_K</title></rect><rect x="297.2" y="231" width="9.4" height="14" rx="2.5" fill="#11677a"><title>layer 18 MLP: Q3_K</title></rect><rect x="308.6" y="231" width="9.4" height="14" rx="2.5" fill="#11677a"><title>layer 19 MLP: Q3_K</title></rect><rect x="320.0" y="231" width="9.4" height="14" rx="2.5" fill="#11677a"><title>layer 20 MLP: Q3_K</title></rect><rect x="331.4" y="231" width="9.4" height="14" rx="2.5" fill="#11677a"><title>layer 21 MLP: Q3_K</title></rect><rect x="342.8" y="231" width="9.4" height="14" rx="2.5" fill="#11677a"><title>layer 22 MLP: Q3_K</title></rect><rect x="354.2" y="231" width="9.4" height="14" rx="2.5" fill="#11677a"><title>layer 23 MLP: Q3_K</title></rect><rect x="365.6" y="231" width="9.4" height="14" rx="2.5" fill="#11677a"><title>layer 24 MLP: Q3_K</title></rect><rect x="377.0" y="231" width="9.4" height="14" rx="2.5" fill="#11677a"><title>layer 25 MLP: Q3_K</title></rect><rect x="388.4" y="231" width="9.4" height="14" rx="2.5" fill="#11677a"><title>layer 26 MLP: Q3_K</title></rect><rect x="399.8" y="231" width="9.4" height="14" rx="2.5" fill="#11677a"><title>layer 27 MLP: Q3_K</title></rect><rect x="411.2" y="231" width="9.4" height="14" rx="2.5" fill="#11677a"><title>layer 28 MLP: Q3_K</title></rect><rect x="422.6" y="231" width="9.4" height="14" rx="2.5" fill="#11677a"><title>layer 29 MLP: Q3_K</title></rect><rect x="434.0" y="231" width="9.4" height="14" rx="2.5" fill="#11677a"><title>layer 30 MLP: Q3_K</title></rect><rect x="445.4" y="231" width="9.4" height="14" rx="2.5" fill="#11677a"><title>layer 31 MLP: Q3_K</title></rect><rect x="456.8" y="231" width="9.4" height="14" rx="2.5" fill="#11677a"><title>layer 32 MLP: Q3_K</title></rect><rect x="468.2" y="231" width="9.4" height="14" rx="2.5" fill="#11677a"><title>layer 33 MLP: Q3_K</title></rect><rect x="479.6" y="231" width="9.4" height="14" rx="2.5" fill="#11677a"><title>layer 34 MLP: Q3_K</title></rect><rect x="491.0" y="231" width="9.4" height="14" rx="2.5" fill="#11677a"><title>layer 35 MLP: Q3_K</title></rect><rect x="502.4" y="231" width="9.4" height="14" rx="2.5" fill="#11677a"><title>layer 36 MLP: Q3_K</title></rect><rect x="513.8" y="231" width="9.4" height="14" rx="2.5" fill="#11677a"><title>layer 37 MLP: Q3_K</title></rect><rect x="525.2" y="231" width="9.4" height="14" rx="2.5" fill="#11677a"><title>layer 38 MLP: Q3_K</title></rect><rect x="536.6" y="231" width="9.4" height="14" rx="2.5" fill="#11677a"><title>layer 39 MLP: Q3_K</title></rect><rect x="548.0" y="231" width="9.4" height="14" rx="2.5" fill="#11677a"><title>layer 40 MLP: Q3_K</title></rect><rect x="559.4" y="231" width="9.4" height="14" rx="2.5" fill="#11677a"><title>layer 41 MLP: Q3_K</title></rect><rect x="570.8" y="231" width="9.4" height="14" rx="2.5" fill="#11677a"><title>layer 42 MLP: Q3_K</title></rect><rect x="582.2" y="231" width="9.4" height="14" rx="2.5" fill="#11677a"><title>layer 43 MLP: Q3_K</title></rect><rect x="593.6" y="231" width="9.4" height="14" rx="2.5" fill="#11677a"><title>layer 44 MLP: Q3_K</title></rect><rect x="605.0" y="231" width="9.4" height="14" rx="2.5" fill="#11677a"><title>layer 45 MLP: Q3_K</title></rect><rect x="616.4" y="231" width="9.4" height="14" rx="2.5" fill="#11677a"><title>layer 46 MLP: Q3_K</title></rect><rect x="627.8" y="231" width="9.4" height="14" rx="2.5" fill="#11677a"><title>layer 47 MLP: Q3_K</title></rect><rect x="639.2" y="231" width="9.4" height="14" rx="2.5" fill="#11677a"><title>layer 48 MLP: Q3_K</title></rect><rect x="650.6" y="231" width="9.4" height="14" rx="2.5" fill="#11677a"><title>layer 49 MLP: Q3_K</title></rect><rect x="662.0" y="231" width="9.4" height="14" rx="2.5" fill="#11677a"><title>layer 50 MLP: Q3_K</title></rect><rect x="673.4" y="231" width="9.4" height="14" rx="2.5" fill="#11677a"><title>layer 51 MLP: Q3_K</title></rect><rect x="684.8" y="231" width="9.4" height="14" rx="2.5" fill="#11677a"><title>layer 52 MLP: Q3_K</title></rect><rect x="696.2" y="231" width="9.4" height="14" rx="2.5" fill="#11677a"><title>layer 53 MLP: Q3_K</title></rect><rect x="707.6" y="231" width="9.4" height="14" rx="2.5" fill="#11677a"><title>layer 54 MLP: Q3_K</title></rect><rect x="719.0" y="231" width="9.4" height="14" rx="2.5" fill="#11677a"><title>layer 55 MLP: Q3_K</title></rect><rect x="730.4" y="231" width="9.4" height="14" rx="2.5" fill="#11677a"><title>layer 56 MLP: Q3_K</title></rect><rect x="741.8" y="231" width="9.4" height="14" rx="2.5" fill="#11677a"><title>layer 57 MLP: Q3_K</title></rect><rect x="753.2" y="231" width="9.4" height="14" rx="2.5" fill="#11677a"><title>layer 58 MLP: Q3_K</title></rect><rect x="764.6" y="231" width="9.4" height="14" rx="2.5" fill="#11677a"><title>layer 59 MLP: Q3_K</title></rect><rect x="776.0" y="231" width="9.4" height="14" rx="2.5" fill="#11677a"><title>layer 60 MLP: Q3_K</title></rect><rect x="787.4" y="231" width="9.4" height="14" rx="2.5" fill="#11677a"><title>layer 61 MLP: Q3_K</title></rect><rect x="798.8" y="231" width="9.4" height="14" rx="2.5" fill="#11677a"><title>layer 62 MLP: Q3_K</title></rect><rect x="810.2" y="231" width="9.4" height="14" rx="2.5" fill="#0a93ad"><title>layer 63 MLP: Q4_K</title></rect><rect x="821.6" y="231" width="9.4" height="14" rx="2.5" fill="#0a93ad"><title>layer 64 MLP: Q4_K</title></rect><rect x="833.0" y="231" width="9.4" height="14" rx="2.5" fill="#0a93ad"><title>layer 65 MLP: Q4_K</title></rect><rect x="844.4" y="231" width="9.4" height="14" rx="2.5" fill="#0a93ad"><title>layer 66 MLP: Q4_K</title></rect><rect x="855.8" y="231" width="9.4" height="14" rx="2.5" fill="#0a93ad"><title>layer 67 MLP: Q4_K</title></rect><rect x="867.2" y="231" width="9.4" height="14" rx="2.5" fill="#0a93ad"><title>layer 68 MLP: Q4_K</title></rect><rect x="878.6" y="231" width="9.4" height="14" rx="2.5" fill="#0a93ad"><title>layer 69 MLP: Q4_K</title></rect><rect x="890.0" y="231" width="9.4" height="14" rx="2.5" fill="#0a93ad"><title>layer 70 MLP: Q4_K</title></rect><rect x="901.4" y="231" width="9.4" height="14" rx="2.5" fill="#0a93ad"><title>layer 71 MLP: Q4_K</title></rect><rect x="912.8" y="231" width="9.4" height="14" rx="2.5" fill="#0a93ad"><title>layer 72 MLP: Q4_K</title></rect><rect x="924.2" y="231" width="9.4" height="14" rx="2.5" fill="#0a93ad"><title>layer 73 MLP: Q4_K</title></rect><rect x="935.6" y="231" width="9.4" height="14" rx="2.5" fill="#0a93ad"><title>layer 74 MLP: Q4_K</title></rect><rect x="947.0" y="231" width="9.4" height="14" rx="2.5" fill="#0a93ad"><title>layer 75 MLP: Q4_K</title></rect><rect x="958.4" y="231" width="9.4" height="14" rx="2.5" fill="#0a93ad"><title>layer 76 MLP: Q4_K</title></rect><rect x="969.8" y="231" width="9.4" height="14" rx="2.5" fill="#0a93ad"><title>layer 77 MLP: Q4_K</title></rect><rect x="981.2" y="231" width="9.4" height="14" rx="2.5" fill="#0a93ad"><title>layer 78 MLP: Q4_K</title></rect><rect x="992.6" y="231" width="9.4" height="14" rx="2.5" fill="#0a93ad"><title>layer 79 MLP: Q4_K</title></rect><rect x="1004.0" y="231" width="9.4" height="14" rx="2.5" fill="#0a93ad"><title>layer 80 MLP: Q4_K</title></rect><rect x="1015.4" y="231" width="9.4" height="14" rx="2.5" fill="#0a93ad"><title>layer 81 MLP: Q4_K</title></rect><rect x="1026.8" y="231" width="9.4" height="14" rx="2.5" fill="#0a93ad"><title>layer 82 MLP: Q4_K</title></rect><rect x="1038.2" y="231" width="9.4" height="14" rx="2.5" fill="#0a93ad"><title>layer 83 MLP: Q4_K</title></rect><rect x="26" y="282" width="13" height="13" rx="3" fill="#17414b"/><text x="45" y="293" font-size="12" fill="#8a96a6">Q2_K</text><rect x="110" y="282" width="13" height="13" rx="3" fill="#11677a"/><text x="129" y="293" font-size="12" fill="#8a96a6">Q3_K</text><rect x="194" y="282" width="13" height="13" rx="3" fill="#0a93ad"/><text x="213" y="293" font-size="12" fill="#8a96a6">Q4_K</text><rect x="278" y="282" width="13" height="13" rx="3" fill="#00bcd8"/><text x="297" y="293" font-size="12" fill="#8a96a6">Q5_K</text><rect x="362" y="282" width="13" height="13" rx="3" fill="#00E5FF"/><text x="381" y="293" font-size="12" fill="#8a96a6">Q6_K</text><rect x="446" y="282" width="13" height="13" rx="3" fill="#c9faff"/><text x="465" y="293" font-size="12" fill="#8a96a6">Q8_0</text></svg>